<svg width="16" height="16" viewBox="0 0 16 16" fill="none" xmlns="http://www.w3.org/2000/svg">
<rect x="1" y="1" width="14" height="14" rx="2" fill="#2549FF"/>
<path d="M7.5 12.5H3.5V7.5M3.5 2.5V7.5M7.5 7.5H3.5" stroke="white" stroke-linejoin="bevel"/>
<circle cx="3.5" cy="2.5" r="1.5" fill="white"/>
<circle cx="6.5" cy="7.5" r="1.5" fill="white"/>
<circle cx="6.5" cy="12.5" r="1.5" fill="white"/>
<path d="M10 4.5H10.5L9.64645 4.14645L10 4.5ZM11.5 8.5H11V9H11.5V8.5ZM8.5 6L8.85355 6.35355L10.3536 4.85355L10 4.5L9.64645 4.14645L8.14645 5.64645L8.5 6ZM10 4.5H9.5V9H10H10.5V4.5H10ZM11.5 8H12C12 8.0942 11.9587 8.12915 11.9921 8.08262C12.018 8.0466 12.0678 7.99117 12.1504 7.91545C12.3159 7.76375 12.5437 7.5922 12.8 7.4C13.0437 7.2172 13.3159 7.01375 13.5254 6.8217C13.6303 6.72555 13.7367 6.61691 13.8202 6.50059C13.8962 6.39478 14 6.2192 14 6H13.5H13C13 5.9058 13.0413 5.87085 13.0079 5.91738C12.982 5.9534 12.9322 6.00883 12.8496 6.08455C12.6841 6.23625 12.4563 6.4078 12.2 6.6C11.9563 6.7828 11.6841 6.98625 11.4746 7.1783C11.3697 7.27445 11.2633 7.38309 11.1798 7.49941C11.1038 7.60522 11 7.7808 11 8H11.5ZM13.5 6H14C14 5.99902 14 5.99805 14 5.99708C14 5.99611 14 5.99515 14 5.99419C14 5.99322 14 5.99227 14 5.99131C14 5.99036 14 5.98941 14 5.98846C14 5.98752 14 5.98657 14 5.98564C14 5.9847 14 5.98376 14 5.98283C14 5.9819 14 5.98097 14 5.98005C14 5.97912 14 5.9782 14 5.97729C14 5.97637 14 5.97546 14 5.97455C14 5.97364 14 5.97273 14 5.97183C14 5.97093 14 5.97003 14 5.96914C14 5.96824 14 5.96735 14 5.96647C14 5.96558 14 5.9647 14 5.96382C14 5.96294 14 5.96206 14 5.96119C14 5.96031 14 5.95944 14 5.95858C14 5.95771 14 5.95685 14 5.95599C14 5.95514 14 5.95428 14 5.95343C14 5.95258 14 5.95173 14 5.95089C14 5.95004 14 5.9492 14 5.94837C14 5.94753 14 5.94669 14 5.94586C14 5.94503 14 5.94421 14 5.94339C14 5.94256 14 5.94174 14 5.94093C14 5.94011 14 5.9393 14 5.93849C14 5.93768 14 5.93688 14 5.93607C14 5.93527 14 5.93447 14 5.93368C14 5.93288 14 5.93209 14 5.9313C14 5.93051 14 5.92973 14 5.92895C14 5.92817 14 5.92739 14 5.92661C14 5.92584 14 5.92507 14 5.9243C14 5.92353 14 5.92277 14 5.92201C14 5.92125 14 5.92049 14 5.91973C14 5.91898 14 5.91823 14 5.91748C14 5.91673 14 5.91599 14 5.91525C14 5.91451 14 5.91377 14 5.91303C14 5.9123 14 5.91157 14 5.91084C14 5.91011 14 5.90939 14 5.90867C14 5.90795 14 5.90723 14 5.90651C14 5.9058 14 5.90509 14 5.90438C14 5.90367 14 5.90297 14 5.90226C14 5.90156 14 5.90086 14 5.90017C14 5.89947 14 5.89878 14 5.89809C14 5.8974 14 5.89672 14 5.89604C14 5.89535 14 5.89467 14 5.894C14 5.89332 14 5.89265 14 5.89198C14 5.89131 14 5.89064 14 5.88998C14 5.88932 14 5.88866 14 5.888C14 5.88734 14 5.88669 14 5.88604C14 5.88539 14 5.88474 14 5.88409C14 5.88345 14 5.88281 14 5.88217C14 5.88153 14 5.8809 14 5.88026C14 5.87963 14 5.879 14 5.87838C14 5.87775 14 5.87713 14 5.87651C14 5.87589 14 5.87527 14 5.87465C14 5.87404 14 5.87343 14 5.87282C14 5.87221 14 5.87161 14 5.87101C14 5.8704 14 5.86981 14 5.86921C14 5.86861 14 5.86802 14 5.86743C14 5.86684 14 5.86625 14 5.86567C14 5.86508 14 5.8645 14 5.86392C14 5.86335 14 5.86277 14 5.8622C14 5.86163 14 5.86106 14 5.86049C14 5.85992 14 5.85936 14 5.8588C14 5.85824 14 5.85768 14 5.85713C14 5.85657 14 5.85602 14 5.85547C14 5.85492 14 5.85437 14 5.85383C14 5.85329 14 5.85274 14 5.85221C14 5.85167 14 5.85113 14 5.8506C14 5.85007 14 5.84954 14 5.84901C14 5.84849 14 5.84796 14 5.84744C14 5.84692 14 5.8464 14 5.84589C14 5.84537 14 5.84486 14 5.84435C14 5.84384 14 5.84333 14 5.84283C14 5.84232 14 5.84182 14 5.84132C14 5.84082 14 5.84033 14 5.83983C14 5.83934 14 5.83885 14 5.83836C14 5.83787 14 5.83739 14 5.8369C14 5.83642 14 5.83594 14 5.83546C14 5.83499 14 5.83451 14 5.83404C14 5.83357 14 5.8331 14 5.83263C14 5.83216 14 5.8317 14 5.83124C14 5.83078 14 5.83032 14 5.82986C14 5.8294 14 5.82895 14 5.8285C14 5.82805 14 5.8276 14 5.82715C14 5.82671 14 5.82626 14 5.82582C14 5.82538 14 5.82494 14 5.82451C14 5.82407 14 5.82364 14 5.82321C14 5.82278 14 5.82235 14 5.82193C14 5.8215 14 5.82108 14 5.82066C14 5.82024 14 5.81982 14 5.8194C14 5.81899 14 5.81857 14 5.81816C14 5.81775 14 5.81734 14 5.81694C14 5.81653 14 5.81613 14 5.81573C14 5.81533 14 5.81493 14 5.81453C14 5.81414 14 5.81374 14 5.81335C14 5.81296 14 5.81257 14 5.81219C14 5.8118 14 5.81142 14 5.81104C14 5.81065 14 5.81027 14 5.8099C14 5.80952 14 5.80915 14 5.80877C14 5.8084 14 5.80803 14 5.80767C14 5.8073 14 5.80693 14 5.80657C14 5.80621 14 5.80585 14 5.80549C14 5.80513 14 5.80478 14 5.80442C14 5.80407 14 5.80372 14 5.80337C14 5.80302 14 5.80267 14 5.80233C14 5.80199 14 5.80164 14 5.8013C14 5.80096 14 5.80063 14 5.80029C14 5.79996 14 5.79962 14 5.79929C14 5.79896 14 5.79863 14 5.79831C14 5.79798 14 5.79766 14 5.79733C14 5.79701 14 5.79669 14 5.79637C14 5.79606 14 5.79574 14 5.79543C14 5.79511 14 5.7948 14 5.79449C14 5.79419 14 5.79388 14 5.79357C14 5.79327 14 5.79297 14 5.79267C14 5.79237 14 5.79207 14 5.79177C14 5.79147 14 5.79118 14 5.79089C14 5.7906 14 5.79031 14 5.79002C14 5.78973 14 5.78945 14 5.78916C14 5.78888 14 5.7886 14 5.78832C14 5.78804 14 5.78776 14 5.78748C14 5.78721 14 5.78693 14 5.78666C14 5.78639 14 5.78612 14 5.78585C14 5.78559 14 5.78532 14 5.78506C14 5.78479 14 5.78453 14 5.78427C14 5.78401 14 5.78375 14 5.7835C14 5.78324 14 5.78299 14 5.78274C14 5.78249 14 5.78224 14 5.78199C14 5.78174 14 5.78149 14 5.78125C14 5.78101 14 5.78076 14 5.78052C14 5.78028 14 5.78004 14 5.77981C14 5.77957 14 5.77934 14 5.7791C14 5.77887 14 5.77864 14 5.77841C14 5.77818 14 5.77795 14 5.77773C14 5.7775 14 5.77728 14 5.77706C14 5.77684 14 5.77662 14 5.7764C14 5.77618 14 5.77596 14 5.77575C14 5.77553 14 5.77532 14 5.77511C14 5.7749 14 5.77469 14 5.77448C14 5.77428 14 5.77407 14 5.77387C14 5.77366 14 5.77346 14 5.77326C14 5.77306 14 5.77286 14 5.77266C14 5.77247 14 5.77227 14 5.77208C14 5.77188 14 5.77169 14 5.7715C14 5.77131 14 5.77112 14 5.77094C14 5.77075 14 5.77056 14 5.77038C14 5.7702 14 5.77001 14 5.76983C14 5.76965 14 5.76947 14 5.7693C14 5.76912 14 5.76894 14 5.76877C14 5.7686 14 5.76843 14 5.76825C14 5.76808 14 5.76791 14 5.76775C14 5.76758 14 5.76741 14 5.76725C14 5.76709 14 5.76692 14 5.76676C14 5.7666 14 5.76644 14 5.76628C14 5.76612 14 5.76597 14 5.76581C14 5.76566 14 5.7655 14 5.76535C14 5.7652 14 5.76505 14 5.7649C14 5.76475 14 5.7646 14 5.76446C14 5.76431 14 5.76417 14 5.76402C14 5.76388 14 5.76374 14 5.7636C14 5.76346 14 5.76332 14 5.76318C14 5.76305 14 5.76291 14 5.76278C14 5.76264 14 5.76251 14 5.76238C14 5.76224 14 5.76211 14 5.76199C14 5.76186 14 5.76173 14 5.7616C14 5.76148 14 5.76135 14 5.76123C14 5.76111 14 5.76098 14 5.76086C14 5.76074 14 5.76062 14 5.7605C14 5.76039 14 5.76027 14 5.76015C14 5.76004 14 5.75993 14 5.75981C14 5.7597 14 5.75959 14 5.75948C14 5.75937 14 5.75926 14 5.75915C14 5.75904 14 5.75894 14 5.75883C14 5.75873 14 5.75862 14 5.75852C14 5.75842 14 5.75832 14 5.75822C14 5.75812 14 5.75802 14 5.75792C14 5.75782 14 5.75772 14 5.75763C14 5.75753 14 5.75744 14 5.75735C14 5.75725 14 5.75716 14 5.75707C14 5.75698 14 5.75689 14 5.7568C14 5.75671 14 5.75663 14 5.75654C14 5.75646 14 5.75637 14 5.75629C14 5.7562 14 5.75612 14 5.75604C14 5.75596 14 5.75588 14 5.7558C14 5.75572 14 5.75564 14 5.75556C14 5.75548 14 5.75541 14 5.75533C14 5.75526 14 5.75518 14 5.75511C14 5.75504 14 5.75497 14 5.7549C14 5.75482 14 5.75475 14 5.75469C14 5.75462 14 5.75455 14 5.75448C14 5.75441 14 5.75435 14 5.75428C14 5.75422 14 5.75416 14 5.75409C14 5.75403 14 5.75397 14 5.75391C14 5.75385 14 5.75379 14 5.75373C14 5.75367 14 5.75361 14 5.75355C14 5.75349 14 5.75344 14 5.75338C14 5.75333 14 5.75327 14 5.75322C14 5.75317 14 5.75311 14 5.75306C14 5.75301 14 5.75296 14 5.75291C14 5.75286 14 5.75281 14 5.75276C14 5.75271 14 5.75266 14 5.75262C14 5.75257 14 5.75252 14 5.75248C14 5.75243 14 5.75239 14 5.75235C14 5.7523 14 5.75226 14 5.75222C14 5.75218 14 5.75214 14 5.7521C14 5.75205 14 5.75202 14 5.75198C14 5.75194 14 5.7519 14 5.75186C14 5.75183 14 5.75179 14 5.75175C14 5.75172 14 5.75168 14 5.75165C14 5.75161 14 5.75158 14 5.75155C14 5.75151 14 5.75148 14 5.75145C14 5.75142 14 5.75139 14 5.75136C14 5.75133 14 5.7513 14 5.75127C14 5.75124 14 5.75121 14 5.75118C14 5.75116 14 5.75113 14 5.7511C14 5.75108 14 5.75105 14 5.75103C14 5.751 14 5.75098 14 5.75095C14 5.75093 14 5.75091 14 5.75088C14 5.75086 14 5.75084 14 5.75082C14 5.7508 14 5.75078 14 5.75075C14 5.75073 14 5.75071 14 5.7507C14 5.75068 14 5.75066 14 5.75064C14 5.75062 14 5.7506 14 5.75059C14 5.75057 14 5.75055 14 5.75054C14 5.75052 14 5.7505 14 5.75049C14 5.75047 14 5.75046 14 5.75044C14 5.75043 14 5.75042 14 5.7504C14 5.75039 14 5.75038 14 5.75036C14 5.75035 14 5.75034 14 5.75033C14 5.75032 14 5.7503 14 5.75029C14 5.75028 14 5.75027 14 5.75026C14 5.75025 14 5.75024 14 5.75023C14 5.75022 14 5.75021 14 5.75021C14 5.7502 14 5.75019 14 5.75018C14 5.75017 14 5.75017 14 5.75016C14 5.75015 14 5.75014 14 5.75014C14 5.75013 14 5.75013 14 5.75012C14 5.75011 14 5.75011 14 5.7501C14 5.7501 14 5.75009 14 5.75009C14 5.75008 14 5.75008 14 5.75007C14 5.75007 14 5.75006 14 5.75006C14 5.75006 14 5.75005 14 5.75005C14 5.75005 14 5.75004 14 5.75004C14 5.75004 14 5.75004 14 5.75003C14 5.75003 14 5.75003 14 5.75003C14 5.75002 14 5.75002 14 5.75002C14 5.75002 14 5.75002 14 5.75001C14 5.75001 14 5.75001 14 5.75001C14 5.75001 14 5.75001 14 5.75001C14 5.75001 14 5.75001 14 5.75001C14 5.75 14 5.75 14 5.75C14 5.75 14 5.75 14 5.75C14 5.75 14 5.75 14 5.75C14 5.75 14 5.75 14 5.75C14 5.75 14 5.75 14 5.75C14 5.75 14 5.75 14 5.75C14 5.75 13.5 5.75 13.5 5.75C13.5 5.75 14 5.75 14 5.75C14 5.75 14 5.75 14 5.75C14 5.75 14 5.75 14 5.75C14 5.75 14 5.75 14 5.75C14 5.75 14 5.75 14 5.75C14 5.75 14 5.75 14 5.75C14 5.75 14 5.75 14 5.74999C14 5.74999 14 5.74999 14 5.74999C14 5.74999 14 5.74999 14 5.74999C14 5.74999 14 5.74999 14 5.74999C14 5.74998 14 5.74998 14 5.74998C14 5.74998 14 5.74998 14 5.74997C14 5.74997 14 5.74997 14 5.74997C14 5.74996 14 5.74996 14 5.74996C14 5.74996 14 5.74995 14 5.74995C14 5.74995 14 5.74994 14 5.74994C14 5.74994 14 5.74993 14 5.74993C14 5.74992 14 5.74992 14 5.74991C14 5.74991 14 5.7499 14 5.7499C14 5.74989 14 5.74989 14 5.74988C14 5.74987 14 5.74987 14 5.74986C14 5.74986 14 5.74985 14 5.74984C14 5.74983 14 5.74983 14 5.74982C14 5.74981 14 5.7498 14 5.74979C14 5.74979 14 5.74978 14 5.74977C14 5.74976 14 5.74975 14 5.74974C14 5.74973 14 5.74972 14 5.74971C14 5.7497 14 5.74968 14 5.74967C14 5.74966 14 5.74965 14 5.74964C14 5.74962 14 5.74961 14 5.7496C14 5.74958 14 5.74957 14 5.74956C14 5.74954 14 5.74953 14 5.74951C14 5.7495 14 5.74948 14 5.74946C14 5.74945 14 5.74943 14 5.74941C14 5.7494 14 5.74938 14 5.74936C14 5.74934 14 5.74932 14 5.7493C14 5.74929 14 5.74927 14 5.74925C14 5.74922 14 5.7492 14 5.74918C14 5.74916 14 5.74914 14 5.74912C14 5.74909 14 5.74907 14 5.74905C14 5.74902 14 5.749 14 5.74897C14 5.74895 14 5.74892 14 5.7489C14 5.74887 14 5.74884 14 5.74882C14 5.74879 14 5.74876 14 5.74873C14 5.7487 14 5.74867 14 5.74864C14 5.74861 14 5.74858 14 5.74855C14 5.74852 14 5.74849 14 5.74845C14 5.74842 14 5.74839 14 5.74835C14 5.74832 14 5.74828 14 5.74825C14 5.74821 14 5.74817 14 5.74814C14 5.7481 14 5.74806 14 5.74802C14 5.74798 14 5.74795 14 5.7479C14 5.74786 14 5.74782 14 5.74778C14 5.74774 14 5.7477 14 5.74765C14 5.74761 14 5.74757 14 5.74752C14 5.74748 14 5.74743 14 5.74738C14 5.74734 14 5.74729 14 5.74724C14 5.74719 14 5.74714 14 5.74709C14 5.74704 14 5.74699 14 5.74694C14 5.74689 14 5.74683 14 5.74678C14 5.74673 14 5.74667 14 5.74662C14 5.74656 14 5.74651 14 5.74645C14 5.74639 14 5.74633 14 5.74627C14 5.74621 14 5.74615 14 5.74609C14 5.74603 14 5.74597 14 5.74591C14 5.74584 14 5.74578 14 5.74572C14 5.74565 14 5.74559 14 5.74552C14 5.74545 14 5.74538 14 5.74531C14 5.74525 14 5.74518 14 5.7451C14 5.74503 14 5.74496 14 5.74489C14 5.74482 14 5.74474 14 5.74467C14 5.74459 14 5.74452 14 5.74444C14 5.74436 14 5.74428 14 5.7442C14 5.74412 14 5.74404 14 5.74396C14 5.74388 14 5.7438 14 5.74371C14 5.74363 14 5.74354 14 5.74346C14 5.74337 14 5.74329 14 5.7432C14 5.74311 14 5.74302 14 5.74293C14 5.74284 14 5.74275 14 5.74265C14 5.74256 14 5.74247 14 5.74237C14 5.74228 14 5.74218 14 5.74208C14 5.74198 14 5.74188 14 5.74178C14 5.74168 14 5.74158 14 5.74148C14 5.74138 14 5.74127 14 5.74117C14 5.74106 14 5.74096 14 5.74085C14 5.74074 14 5.74063 14 5.74052C14 5.74041 14 5.7403 14 5.74019C14 5.74007 14 5.73996 14 5.73985C14 5.73973 14 5.73961 14 5.7395C14 5.73938 14 5.73926 14 5.73914C14 5.73902 14 5.73889 14 5.73877C14 5.73865 14 5.73852 14 5.7384C14 5.73827 14 5.73814 14 5.73801C14 5.73789 14 5.73776 14 5.73762C14 5.73749 14 5.73736 14 5.73722C14 5.73709 14 5.73695 14 5.73682C14 5.73668 14 5.73654 14 5.7364C14 5.73626 14 5.73612 14 5.73598C14 5.73583 14 5.73569 14 5.73554C14 5.7354 14 5.73525 14 5.7351C14 5.73495 14 5.7348 14 5.73465C14 5.7345 14 5.73434 14 5.73419C14 5.73403 14 5.73388 14 5.73372C14 5.73356 14 5.7334 14 5.73324C14 5.73308 14 5.73291 14 5.73275C14 5.73259 14 5.73242 14 5.73225C14 5.73209 14 5.73192 14 5.73175C14 5.73157 14 5.7314 14 5.73123C14 5.73106 14 5.73088 14 5.7307C14 5.73053 14 5.73035 14 5.73017C14 5.72999 14 5.7298 14 5.72962C14 5.72944 14 5.72925 14 5.72906C14 5.72888 14 5.72869 14 5.7285C14 5.72831 14 5.72812 14 5.72792C14 5.72773 14 5.72753 14 5.72734C14 5.72714 14 5.72694 14 5.72674C14 5.72654 14 5.72634 14 5.72613C14 5.72593 14 5.72572 14 5.72552C14 5.72531 14 5.7251 14 5.72489C14 5.72468 14 5.72447 14 5.72425C14 5.72404 14 5.72382 14 5.7236C14 5.72338 14 5.72316 14 5.72294C14 5.72272 14 5.7225 14 5.72227C14 5.72205 14 5.72182 14 5.72159C14 5.72136 14 5.72113 14 5.7209C14 5.72066 14 5.72043 14 5.72019C14 5.71996 14 5.71972 14 5.71948C14 5.71924 14 5.71899 14 5.71875C14 5.71851 14 5.71826 14 5.71801C14 5.71776 14 5.71751 14 5.71726C14 5.71701 14 5.71676 14 5.7165C14 5.71625 14 5.71599 14 5.71573C14 5.71547 14 5.71521 14 5.71494C14 5.71468 14 5.71441 14 5.71415C14 5.71388 14 5.71361 14 5.71334C14 5.71307 14 5.71279 14 5.71252C14 5.71224 14 5.71196 14 5.71168C14 5.7114 14 5.71112 14 5.71084C14 5.71055 14 5.71027 14 5.70998C14 5.70969 14 5.7094 14 5.70911C14 5.70882 14 5.70853 14 5.70823C14 5.70793 14 5.70763 14 5.70733C14 5.70703 14 5.70673 14 5.70643C14 5.70612 14 5.70581 14 5.70551C14 5.7052 14 5.70489 14 5.70457C14 5.70426 14 5.70394 14 5.70363C14 5.70331 14 5.70299 14 5.70267C14 5.70234 14 5.70202 14 5.70169C14 5.70137 14 5.70104 14 5.70071C14 5.70038 14 5.70004 14 5.69971C14 5.69937 14 5.69904 14 5.6987C14 5.69836 14 5.69801 14 5.69767C14 5.69733 14 5.69698 14 5.69663C14 5.69628 14 5.69593 14 5.69558C14 5.69522 14 5.69487 14 5.69451C14 5.69415 14 5.69379 14 5.69343C14 5.69307 14 5.6927 14 5.69233C14 5.69197 14 5.6916 14 5.69123C14 5.69085 14 5.69048 14 5.6901C14 5.68973 14 5.68935 14 5.68896C14 5.68858 14 5.6882 14 5.68781C14 5.68743 14 5.68704 14 5.68665C14 5.68626 14 5.68586 14 5.68547C14 5.68507 14 5.68467 14 5.68427C14 5.68387 14 5.68347 14 5.68306C14 5.68266 14 5.68225 14 5.68184C14 5.68143 14 5.68101 14 5.6806C14 5.68018 14 5.67976 14 5.67934C14 5.67892 14 5.6785 14 5.67807C14 5.67765 14 5.67722 14 5.67679C14 5.67636 14 5.67593 14 5.67549C14 5.67506 14 5.67462 14 5.67418C14 5.67374 14 5.67329 14 5.67285C14 5.6724 14 5.67195 14 5.6715C14 5.67105 14 5.6706 14 5.67014C14 5.66968 14 5.66922 14 5.66876C14 5.6683 14 5.66784 14 5.66737C14 5.6669 14 5.66643 14 5.66596C14 5.66549 14 5.66501 14 5.66454C14 5.66406 14 5.66358 14 5.6631C14 5.66261 14 5.66213 14 5.66164C14 5.66115 14 5.66066 14 5.66017C14 5.65967 14 5.65918 14 5.65868C14 5.65818 14 5.65768 14 5.65717C14 5.65667 14 5.65616 14 5.65565C14 5.65514 14 5.65463 14 5.65411C14 5.6536 14 5.65308 14 5.65256C14 5.65204 14 5.65151 14 5.65099C14 5.65046 14 5.64993 14 5.6494C14 5.64887 14 5.64833 14 5.64779C14 5.64726 14 5.64671 14 5.64617C14 5.64563 14 5.64508 14 5.64453C14 5.64398 14 5.64343 14 5.64287C14 5.64232 14 5.64176 14 5.6412C14 5.64064 14 5.64008 14 5.63951C14 5.63894 14 5.63837 14 5.6378C14 5.63723 14 5.63665 14 5.63608C14 5.6355 14 5.63492 14 5.63433C14 5.63375 14 5.63316 14 5.63257C14 5.63198 14 5.63139 14 5.63079C14 5.63019 14 5.6296 14 5.62899C14 5.62839 14 5.62779 14 5.62718C14 5.62657 14 5.62596 14 5.62535C14 5.62473 14 5.62411 14 5.62349C14 5.62287 14 5.62225 14 5.62162C14 5.621 14 5.62037 14 5.61974C14 5.6191 14 5.61847 14 5.61783C14 5.61719 14 5.61655 14 5.61591C14 5.61526 14 5.61461 14 5.61396C14 5.61331 14 5.61266 14 5.612C14 5.61134 14 5.61068 14 5.61002C14 5.60936 14 5.60869 14 5.60802C14 5.60735 14 5.60668 14 5.606C14 5.60533 14 5.60465 14 5.60396C14 5.60328 14 5.6026 14 5.60191C14 5.60122 14 5.60053 14 5.59983C14 5.59914 14 5.59844 14 5.59774C14 5.59703 14 5.59633 14 5.59562C14 5.59491 14 5.5942 14 5.59349C14 5.59277 14 5.59205 14 5.59133C14 5.59061 14 5.58989 14 5.58916C14 5.58843 14 5.5877 14 5.58697C14 5.58623 14 5.58549 14 5.58475C14 5.58401 14 5.58327 14 5.58252C14 5.58177 14 5.58102 14 5.58027C14 5.57951 14 5.57875 14 5.57799C14 5.57723 14 5.57647 14 5.5757C14 5.57493 14 5.57416 14 5.57339C14 5.57261 14 5.57183 14 5.57105C14 5.57027 14 5.56949 14 5.5687C14 5.56791 14 5.56712 14 5.56632C14 5.56553 14 5.56473 14 5.56393C14 5.56312 14 5.56232 14 5.56151C14 5.5607 14 5.55989 14 5.55907C14 5.55826 14 5.55744 14 5.55661C14 5.55579 14 5.55497 14 5.55414C14 5.55331 14 5.55247 14 5.55163C14 5.5508 14 5.54996 14 5.54911C14 5.54827 14 5.54742 14 5.54657C14 5.54572 14 5.54486 14 5.54401C14 5.54315 14 5.54229 14 5.54142C14 5.54056 14 5.53969 14 5.53881C14 5.53794 14 5.53706 14 5.53618C14 5.5353 14 5.53442 14 5.53353C14 5.53265 14 5.53176 14 5.53086C14 5.52997 14 5.52907 14 5.52817C14 5.52727 14 5.52636 14 5.52545C14 5.52454 14 5.52363 14 5.52271C14 5.5218 14 5.52088 14 5.51995C14 5.51903 14 5.5181 14 5.51717C14 5.51624 14 5.5153 14 5.51436C14 5.51343 14 5.51248 14 5.51154C14 5.51059 14 5.50964 14 5.50869C14 5.50773 14 5.50678 14 5.50581C14 5.50485 14 5.50389 14 5.50292C14 5.50195 14 5.50098 14 5.5H13.5H13C13 5.50098 13 5.50195 13 5.50292C13 5.50389 13 5.50485 13 5.50581C13 5.50678 13 5.50773 13 5.50869C13 5.50964 13 5.51059 13 5.51154C13 5.51248 13 5.51343 13 5.51436C13 5.5153 13 5.51624 13 5.51717C13 5.5181 13 5.51903 13 5.51995C13 5.52088 13 5.5218 13 5.52271C13 5.52363 13 5.52454 13 5.52545C13 5.52636 13 5.52727 13 5.52817C13 5.52907 13 5.52997 13 5.53086C13 5.53176 13 5.53265 13 5.53353C13 5.53442 13 5.5353 13 5.53618C13 5.53706 13 5.53794 13 5.53881C13 5.53969 13 5.54056 13 5.54142C13 5.54229 13 5.54315 13 5.54401C13 5.54486 13 5.54572 13 5.54657C13 5.54742 13 5.54827 13 5.54911C13 5.54996 13 5.5508 13 5.55163C13 5.55247 13 5.55331 13 5.55414C13 5.55497 13 5.55579 13 5.55661C13 5.55744 13 5.55826 13 5.55907C13 5.55989 13 5.5607 13 5.56151C13 5.56232 13 5.56312 13 5.56393C13 5.56473 13 5.56553 13 5.56632C13 5.56712 13 5.56791 13 5.5687C13 5.56949 13 5.57027 13 5.57105C13 5.57183 13 5.57261 13 5.57339C13 5.57416 13 5.57493 13 5.5757C13 5.57647 13 5.57723 13 5.57799C13 5.57875 13 5.57951 13 5.58027C13 5.58102 13 5.58177 13 5.58252C13 5.58327 13 5.58401 13 5.58475C13 5.58549 13 5.58623 13 5.58697C13 5.5877 13 5.58843 13 5.58916C13 5.58989 13 5.59061 13 5.59133C13 5.59205 13 5.59277 13 5.59349C13 5.5942 13 5.59491 13 5.59562C13 5.59633 13 5.59703 13 5.59774C13 5.59844 13 5.59914 13 5.59983C13 5.60053 13 5.60122 13 5.60191C13 5.6026 13 5.60328 13 5.60396C13 5.60465 13 5.60533 13 5.606C13 5.60668 13 5.60735 13 5.60802C13 5.60869 13 5.60936 13 5.61002C13 5.61068 13 5.61134 13 5.612C13 5.61266 13 5.61331 13 5.61396C13 5.61461 13 5.61526 13 5.61591C13 5.61655 13 5.61719 13 5.61783C13 5.61847 13 5.6191 13 5.61974C13 5.62037 13 5.621 13 5.62162C13 5.62225 13 5.62287 13 5.62349C13 5.62411 13 5.62473 13 5.62535C13 5.62596 13 5.62657 13 5.62718C13 5.62779 13 5.62839 13 5.62899C13 5.6296 13 5.63019 13 5.63079C13 5.63139 13 5.63198 13 5.63257C13 5.63316 13 5.63375 13 5.63433C13 5.63492 13 5.6355 13 5.63608C13 5.63665 13 5.63723 13 5.6378C13 5.63837 13 5.63894 13 5.63951C13 5.64008 13 5.64064 13 5.6412C13 5.64176 13 5.64232 13 5.64287C13 5.64343 13 5.64398 13 5.64453C13 5.64508 13 5.64563 13 5.64617C13 5.64671 13 5.64726 13 5.64779C13 5.64833 13 5.64887 13 5.6494C13 5.64993 13 5.65046 13 5.65099C13 5.65151 13 5.65204 13 5.65256C13 5.65308 13 5.6536 13 5.65411C13 5.65463 13 5.65514 13 5.65565C13 5.65616 13 5.65667 13 5.65717C13 5.65768 13 5.65818 13 5.65868C13 5.65918 13 5.65967 13 5.66017C13 5.66066 13 5.66115 13 5.66164C13 5.66213 13 5.66261 13 5.6631C13 5.66358 13 5.66406 13 5.66454C13 5.66501 13 5.66549 13 5.66596C13 5.66643 13 5.6669 13 5.66737C13 5.66784 13 5.6683 13 5.66876C13 5.66922 13 5.66968 13 5.67014C13 5.6706 13 5.67105 13 5.6715C13 5.67195 13 5.6724 13 5.67285C13 5.67329 13 5.67374 13 5.67418C13 5.67462 13 5.67506 13 5.67549C13 5.67593 13 5.67636 13 5.67679C13 5.67722 13 5.67765 13 5.67807C13 5.6785 13 5.67892 13 5.67934C13 5.67976 13 5.68018 13 5.6806C13 5.68101 13 5.68143 13 5.68184C13 5.68225 13 5.68266 13 5.68306C13 5.68347 13 5.68387 13 5.68427C13 5.68467 13 5.68507 13 5.68547C13 5.68586 13 5.68626 13 5.68665C13 5.68704 13 5.68743 13 5.68781C13 5.6882 13 5.68858 13 5.68896C13 5.68935 13 5.68973 13 5.6901C13 5.69048 13 5.69085 13 5.69123C13 5.6916 13 5.69197 13 5.69233C13 5.6927 13 5.69307 13 5.69343C13 5.69379 13 5.69415 13 5.69451C13 5.69487 13 5.69522 13 5.69558C13 5.69593 13 5.69628 13 5.69663C13 5.69698 13 5.69733 13 5.69767C13 5.69801 13 5.69836 13 5.6987C13 5.69904 13 5.69937 13 5.69971C13 5.70004 13 5.70038 13 5.70071C13 5.70104 13 5.70137 13 5.70169C13 5.70202 13 5.70234 13 5.70267C13 5.70299 13 5.70331 13 5.70363C13 5.70394 13 5.70426 13 5.70457C13 5.70489 13 5.7052 13 5.70551C13 5.70581 13 5.70612 13 5.70643C13 5.70673 13 5.70703 13 5.70733C13 5.70763 13 5.70793 13 5.70823C13 5.70853 13 5.70882 13 5.70911C13 5.7094 13 5.70969 13 5.70998C13 5.71027 13 5.71055 13 5.71084C13 5.71112 13 5.7114 13 5.71168C13 5.71196 13 5.71224 13 5.71252C13 5.71279 13 5.71307 13 5.71334C13 5.71361 13 5.71388 13 5.71415C13 5.71441 13 5.71468 13 5.71494C13 5.71521 13 5.71547 13 5.71573C13 5.71599 13 5.71625 13 5.7165C13 5.71676 13 5.71701 13 5.71726C13 5.71751 13 5.71776 13 5.71801C13 5.71826 13 5.71851 13 5.71875C13 5.71899 13 5.71924 13 5.71948C13 5.71972 13 5.71996 13 5.72019C13 5.72043 13 5.72066 13 5.7209C13 5.72113 13 5.72136 13 5.72159C13 5.72182 13 5.72205 13 5.72227C13 5.7225 13 5.72272 13 5.72294C13 5.72316 13 5.72338 13 5.7236C13 5.72382 13 5.72404 13 5.72425C13 5.72447 13 5.72468 13 5.72489C13 5.7251 13 5.72531 13 5.72552C13 5.72572 13 5.72593 13 5.72613C13 5.72634 13 5.72654 13 5.72674C13 5.72694 13 5.72714 13 5.72734C13 5.72753 13 5.72773 13 5.72792C13 5.72812 13 5.72831 13 5.7285C13 5.72869 13 5.72888 13 5.72906C13 5.72925 13 5.72944 13 5.72962C13 5.7298 13 5.72999 13 5.73017C13 5.73035 13 5.73053 13 5.7307C13 5.73088 13 5.73106 13 5.73123C13 5.7314 13 5.73157 13 5.73175C13 5.73192 13 5.73209 13 5.73225C13 5.73242 13 5.73259 13 5.73275C13 5.73291 13 5.73308 13 5.73324C13 5.7334 13 5.73356 13 5.73372C13 5.73388 13 5.73403 13 5.73419C13 5.73434 13 5.7345 13 5.73465C13 5.7348 13 5.73495 13 5.7351C13 5.73525 13 5.7354 13 5.73554C13 5.73569 13 5.73583 13 5.73598C13 5.73612 13 5.73626 13 5.7364C13 5.73654 13 5.73668 13 5.73682C13 5.73695 13 5.73709 13 5.73722C13 5.73736 13 5.73749 13 5.73762C13 5.73776 13 5.73789 13 5.73801C13 5.73814 13 5.73827 13 5.7384C13 5.73852 13 5.73865 13 5.73877C13 5.73889 13 5.73902 13 5.73914C13 5.73926 13 5.73938 13 5.7395C13 5.73961 13 5.73973 13 5.73985C13 5.73996 13 5.74007 13 5.74019C13 5.7403 13 5.74041 13 5.74052C13 5.74063 13 5.74074 13 5.74085C13 5.74096 13 5.74106 13 5.74117C13 5.74127 13 5.74138 13 5.74148C13 5.74158 13 5.74168 13 5.74178C13 5.74188 13 5.74198 13 5.74208C13 5.74218 13 5.74228 13 5.74237C13 5.74247 13 5.74256 13 5.74265C13 5.74275 13 5.74284 13 5.74293C13 5.74302 13 5.74311 13 5.7432C13 5.74329 13 5.74337 13 5.74346C13 5.74354 13 5.74363 13 5.74371C13 5.7438 13 5.74388 13 5.74396C13 5.74404 13 5.74412 13 5.7442C13 5.74428 13 5.74436 13 5.74444C13 5.74452 13 5.74459 13 5.74467C13 5.74474 13 5.74482 13 5.74489C13 5.74496 13 5.74503 13 5.7451C13 5.74518 13 5.74525 13 5.74531C13 5.74538 13 5.74545 13 5.74552C13 5.74559 13 5.74565 13 5.74572C13 5.74578 13 5.74584 13 5.74591C13 5.74597 13 5.74603 13 5.74609C13 5.74615 13 5.74621 13 5.74627C13 5.74633 13 5.74639 13 5.74645C13 5.74651 13 5.74656 13 5.74662C13 5.74667 13 5.74673 13 5.74678C13 5.74683 13 5.74689 13 5.74694C13 5.74699 13 5.74704 13 5.74709C13 5.74714 13 5.74719 13 5.74724C13 5.74729 13 5.74734 13 5.74738C13 5.74743 13 5.74748 13 5.74752C13 5.74757 13 5.74761 13 5.74765C13 5.7477 13 5.74774 13 5.74778C13 5.74782 13 5.74786 13 5.7479C13 5.74795 13 5.74798 13 5.74802C13 5.74806 13 5.7481 13 5.74814C13 5.74817 13 5.74821 13 5.74825C13 5.74828 13 5.74832 13 5.74835C13 5.74839 13 5.74842 13 5.74845C13 5.74849 13 5.74852 13 5.74855C13 5.74858 13 5.74861 13 5.74864C13 5.74867 13 5.7487 13 5.74873C13 5.74876 13 5.74879 13 5.74882C13 5.74884 13 5.74887 13 5.7489C13 5.74892 13 5.74895 13 5.74897C13 5.749 13 5.74902 13 5.74905C13 5.74907 13 5.74909 13 5.74912C13 5.74914 13 5.74916 13 5.74918C13 5.7492 13 5.74922 13 5.74925C13 5.74927 13 5.74929 13 5.7493C13 5.74932 13 5.74934 13 5.74936C13 5.74938 13 5.7494 13 5.74941C13 5.74943 13 5.74945 13 5.74946C13 5.74948 13 5.7495 13 5.74951C13 5.74953 13 5.74954 13 5.74956C13 5.74957 13 5.74958 13 5.7496C13 5.74961 13 5.74962 13 5.74964C13 5.74965 13 5.74966 13 5.74967C13 5.74968 13 5.7497 13 5.74971C13 5.74972 13 5.74973 13 5.74974C13 5.74975 13 5.74976 13 5.74977C13 5.74978 13 5.74979 13 5.74979C13 5.7498 13 5.74981 13 5.74982C13 5.74983 13 5.74983 13 5.74984C13 5.74985 13 5.74986 13 5.74986C13 5.74987 13 5.74987 13 5.74988C13 5.74989 13 5.74989 13 5.7499C13 5.7499 13 5.74991 13 5.74991C13 5.74992 13 5.74992 13 5.74993C13 5.74993 13 5.74994 13 5.74994C13 5.74994 13 5.74995 13 5.74995C13 5.74995 13 5.74996 13 5.74996C13 5.74996 13 5.74996 13 5.74997C13 5.74997 13 5.74997 13 5.74997C13 5.74998 13 5.74998 13 5.74998C13 5.74998 13 5.74998 13 5.74999C13 5.74999 13 5.74999 13 5.74999C13 5.74999 13 5.74999 13 5.74999C13 5.74999 13 5.74999 13 5.74999C13 5.75 13 5.75 13 5.75C13 5.75 13 5.75 13 5.75C13 5.75 13 5.75 13 5.75C13 5.75 13 5.75 13 5.75C13 5.75 13 5.75 13 5.75C13 5.75 13 5.75 13 5.75C13 5.75 13.5 5.75 13.5 5.75C13.5 5.75 13 5.75 13 5.75C13 5.75 13 5.75 13 5.75C13 5.75 13 5.75 13 5.75C13 5.75 13 5.75 13 5.75C13 5.75 13 5.75 13 5.75C13 5.75 13 5.75 13 5.75C13 5.75 13 5.75 13 5.75001C13 5.75001 13 5.75001 13 5.75001C13 5.75001 13 5.75001 13 5.75001C13 5.75001 13 5.75001 13 5.75001C13 5.75002 13 5.75002 13 5.75002C13 5.75002 13 5.75002 13 5.75003C13 5.75003 13 5.75003 13 5.75003C13 5.75004 13 5.75004 13 5.75004C13 5.75004 13 5.75005 13 5.75005C13 5.75005 13 5.75006 13 5.75006C13 5.75006 13 5.75007 13 5.75007C13 5.75008 13 5.75008 13 5.75009C13 5.75009 13 5.7501 13 5.7501C13 5.75011 13 5.75011 13 5.75012C13 5.75013 13 5.75013 13 5.75014C13 5.75014 13 5.75015 13 5.75016C13 5.75017 13 5.75017 13 5.75018C13 5.75019 13 5.7502 13 5.75021C13 5.75021 13 5.75022 13 5.75023C13 5.75024 13 5.75025 13 5.75026C13 5.75027 13 5.75028 13 5.75029C13 5.7503 13 5.75032 13 5.75033C13 5.75034 13 5.75035 13 5.75036C13 5.75038 13 5.75039 13 5.7504C13 5.75042 13 5.75043 13 5.75044C13 5.75046 13 5.75047 13 5.75049C13 5.7505 13 5.75052 13 5.75054C13 5.75055 13 5.75057 13 5.75059C13 5.7506 13 5.75062 13 5.75064C13 5.75066 13 5.75068 13 5.7507C13 5.75071 13 5.75073 13 5.75075C13 5.75078 13 5.7508 13 5.75082C13 5.75084 13 5.75086 13 5.75088C13 5.75091 13 5.75093 13 5.75095C13 5.75098 13 5.751 13 5.75103C13 5.75105 13 5.75108 13 5.7511C13 5.75113 13 5.75116 13 5.75118C13 5.75121 13 5.75124 13 5.75127C13 5.7513 13 5.75133 13 5.75136C13 5.75139 13 5.75142 13 5.75145C13 5.75148 13 5.75151 13 5.75155C13 5.75158 13 5.75161 13 5.75165C13 5.75168 13 5.75172 13 5.75175C13 5.75179 13 5.75183 13 5.75186C13 5.7519 13 5.75194 13 5.75198C13 5.75202 13 5.75205 13 5.7521C13 5.75214 13 5.75218 13 5.75222C13 5.75226 13 5.7523 13 5.75235C13 5.75239 13 5.75243 13 5.75248C13 5.75252 13 5.75257 13 5.75262C13 5.75266 13 5.75271 13 5.75276C13 5.75281 13 5.75286 13 5.75291C13 5.75296 13 5.75301 13 5.75306C13 5.75311 13 5.75317 13 5.75322C13 5.75327 13 5.75333 13 5.75338C13 5.75344 13 5.75349 13 5.75355C13 5.75361 13 5.75367 13 5.75373C13 5.75379 13 5.75385 13 5.75391C13 5.75397 13 5.75403 13 5.75409C13 5.75416 13 5.75422 13 5.75428C13 5.75435 13 5.75441 13 5.75448C13 5.75455 13 5.75462 13 5.75469C13 5.75475 13 5.75482 13 5.7549C13 5.75497 13 5.75504 13 5.75511C13 5.75518 13 5.75526 13 5.75533C13 5.75541 13 5.75548 13 5.75556C13 5.75564 13 5.75572 13 5.7558C13 5.75588 13 5.75596 13 5.75604C13 5.75612 13 5.7562 13 5.75629C13 5.75637 13 5.75646 13 5.75654C13 5.75663 13 5.75671 13 5.7568C13 5.75689 13 5.75698 13 5.75707C13 5.75716 13 5.75725 13 5.75735C13 5.75744 13 5.75753 13 5.75763C13 5.75772 13 5.75782 13 5.75792C13 5.75802 13 5.75812 13 5.75822C13 5.75832 13 5.75842 13 5.75852C13 5.75862 13 5.75873 13 5.75883C13 5.75894 13 5.75904 13 5.75915C13 5.75926 13 5.75937 13 5.75948C13 5.75959 13 5.7597 13 5.75981C13 5.75993 13 5.76004 13 5.76015C13 5.76027 13 5.76039 13 5.7605C13 5.76062 13 5.76074 13 5.76086C13 5.76098 13 5.76111 13 5.76123C13 5.76135 13 5.76148 13 5.7616C13 5.76173 13 5.76186 13 5.76199C13 5.76211 13 5.76224 13 5.76238C13 5.76251 13 5.76264 13 5.76278C13 5.76291 13 5.76305 13 5.76318C13 5.76332 13 5.76346 13 5.7636C13 5.76374 13 5.76388 13 5.76402C13 5.76417 13 5.76431 13 5.76446C13 5.7646 13 5.76475 13 5.7649C13 5.76505 13 5.7652 13 5.76535C13 5.7655 13 5.76566 13 5.76581C13 5.76597 13 5.76612 13 5.76628C13 5.76644 13 5.7666 13 5.76676C13 5.76692 13 5.76709 13 5.76725C13 5.76741 13 5.76758 13 5.76775C13 5.76791 13 5.76808 13 5.76825C13 5.76843 13 5.7686 13 5.76877C13 5.76894 13 5.76912 13 5.7693C13 5.76947 13 5.76965 13 5.76983C13 5.77001 13 5.7702 13 5.77038C13 5.77056 13 5.77075 13 5.77094C13 5.77112 13 5.77131 13 5.7715C13 5.77169 13 5.77188 13 5.77208C13 5.77227 13 5.77247 13 5.77266C13 5.77286 13 5.77306 13 5.77326C13 5.77346 13 5.77366 13 5.77387C13 5.77407 13 5.77428 13 5.77448C13 5.77469 13 5.7749 13 5.77511C13 5.77532 13 5.77553 13 5.77575C13 5.77596 13 5.77618 13 5.7764C13 5.77662 13 5.77684 13 5.77706C13 5.77728 13 5.7775 13 5.77773C13 5.77795 13 5.77818 13 5.77841C13 5.77864 13 5.77887 13 5.7791C13 5.77934 13 5.77957 13 5.77981C13 5.78004 13 5.78028 13 5.78052C13 5.78076 13 5.78101 13 5.78125C13 5.78149 13 5.78174 13 5.78199C13 5.78224 13 5.78249 13 5.78274C13 5.78299 13 5.78324 13 5.7835C13 5.78375 13 5.78401 13 5.78427C13 5.78453 13 5.78479 13 5.78506C13 5.78532 13 5.78559 13 5.78585C13 5.78612 13 5.78639 13 5.78666C13 5.78693 13 5.78721 13 5.78748C13 5.78776 13 5.78804 13 5.78832C13 5.7886 13 5.78888 13 5.78916C13 5.78945 13 5.78973 13 5.79002C13 5.79031 13 5.7906 13 5.79089C13 5.79118 13 5.79147 13 5.79177C13 5.79207 13 5.79237 13 5.79267C13 5.79297 13 5.79327 13 5.79357C13 5.79388 13 5.79419 13 5.79449C13 5.7948 13 5.79511 13 5.79543C13 5.79574 13 5.79606 13 5.79637C13 5.79669 13 5.79701 13 5.79733C13 5.79766 13 5.79798 13 5.79831C13 5.79863 13 5.79896 13 5.79929C13 5.79962 13 5.79996 13 5.80029C13 5.80063 13 5.80096 13 5.8013C13 5.80164 13 5.80199 13 5.80233C13 5.80267 13 5.80302 13 5.80337C13 5.80372 13 5.80407 13 5.80442C13 5.80478 13 5.80513 13 5.80549C13 5.80585 13 5.80621 13 5.80657C13 5.80693 13 5.8073 13 5.80767C13 5.80803 13 5.8084 13 5.80877C13 5.80915 13 5.80952 13 5.8099C13 5.81027 13 5.81065 13 5.81104C13 5.81142 13 5.8118 13 5.81219C13 5.81257 13 5.81296 13 5.81335C13 5.81374 13 5.81414 13 5.81453C13 5.81493 13 5.81533 13 5.81573C13 5.81613 13 5.81653 13 5.81694C13 5.81734 13 5.81775 13 5.81816C13 5.81857 13 5.81899 13 5.8194C13 5.81982 13 5.82024 13 5.82066C13 5.82108 13 5.8215 13 5.82193C13 5.82235 13 5.82278 13 5.82321C13 5.82364 13 5.82407 13 5.82451C13 5.82494 13 5.82538 13 5.82582C13 5.82626 13 5.82671 13 5.82715C13 5.8276 13 5.82805 13 5.8285C13 5.82895 13 5.8294 13 5.82986C13 5.83032 13 5.83078 13 5.83124C13 5.8317 13 5.83216 13 5.83263C13 5.8331 13 5.83357 13 5.83404C13 5.83451 13 5.83499 13 5.83546C13 5.83594 13 5.83642 13 5.8369C13 5.83739 13 5.83787 13 5.83836C13 5.83885 13 5.83934 13 5.83983C13 5.84033 13 5.84082 13 5.84132C13 5.84182 13 5.84232 13 5.84283C13 5.84333 13 5.84384 13 5.84435C13 5.84486 13 5.84537 13 5.84589C13 5.8464 13 5.84692 13 5.84744C13 5.84796 13 5.84849 13 5.84901C13 5.84954 13 5.85007 13 5.8506C13 5.85113 13 5.85167 13 5.85221C13 5.85274 13 5.85329 13 5.85383C13 5.85437 13 5.85492 13 5.85547C13 5.85602 13 5.85657 13 5.85713C13 5.85768 13 5.85824 13 5.8588C13 5.85936 13 5.85992 13 5.86049C13 5.86106 13 5.86163 13 5.8622C13 5.86277 13 5.86335 13 5.86392C13 5.8645 13 5.86508 13 5.86567C13 5.86625 13 5.86684 13 5.86743C13 5.86802 13 5.86861 13 5.86921C13 5.86981 13 5.8704 13 5.87101C13 5.87161 13 5.87221 13 5.87282C13 5.87343 13 5.87404 13 5.87465C13 5.87527 13 5.87589 13 5.87651C13 5.87713 13 5.87775 13 5.87838C13 5.879 13 5.87963 13 5.88026C13 5.8809 13 5.88153 13 5.88217C13 5.88281 13 5.88345 13 5.88409C13 5.88474 13 5.88539 13 5.88604C13 5.88669 13 5.88734 13 5.888C13 5.88866 13 5.88932 13 5.88998C13 5.89064 13 5.89131 13 5.89198C13 5.89265 13 5.89332 13 5.894C13 5.89467 13 5.89535 13 5.89604C13 5.89672 13 5.8974 13 5.89809C13 5.89878 13 5.89947 13 5.90017C13 5.90086 13 5.90156 13 5.90226C13 5.90297 13 5.90367 13 5.90438C13 5.90509 13 5.9058 13 5.90651C13 5.90723 13 5.90795 13 5.90867C13 5.90939 13 5.91011 13 5.91084C13 5.91157 13 5.9123 13 5.91303C13 5.91377 13 5.91451 13 5.91525C13 5.91599 13 5.91673 13 5.91748C13 5.91823 13 5.91898 13 5.91973C13 5.92049 13 5.92125 13 5.92201C13 5.92277 13 5.92353 13 5.9243C13 5.92507 13 5.92584 13 5.92661C13 5.92739 13 5.92817 13 5.92895C13 5.92973 13 5.93051 13 5.9313C13 5.93209 13 5.93288 13 5.93368C13 5.93447 13 5.93527 13 5.93607C13 5.93688 13 5.93768 13 5.93849C13 5.9393 13 5.94011 13 5.94093C13 5.94174 13 5.94256 13 5.94339C13 5.94421 13 5.94503 13 5.94586C13 5.94669 13 5.94753 13 5.94837C13 5.9492 13 5.95004 13 5.95089C13 5.95173 13 5.95258 13 5.95343C13 5.95428 13 5.95514 13 5.95599C13 5.95685 13 5.95771 13 5.95858C13 5.95944 13 5.96031 13 5.96119C13 5.96206 13 5.96294 13 5.96382C13 5.9647 13 5.96558 13 5.96647C13 5.96735 13 5.96824 13 5.96914C13 5.97003 13 5.97093 13 5.97183C13 5.97273 13 5.97364 13 5.97455C13 5.97546 13 5.97637 13 5.97729C13 5.9782 13 5.97912 13 5.98005C13 5.98097 13 5.9819 13 5.98283C13 5.98376 13 5.9847 13 5.98564C13 5.98657 13 5.98752 13 5.98846C13 5.98941 13 5.99036 13 5.99131C13 5.99227 13 5.99322 13 5.99419C13 5.99515 13 5.99611 13 5.99708C13 5.99805 13 5.99902 13 6H13.5ZM13.5 5.5C14 5.5 14 5.49975 14 5.4995C14 5.49941 14 5.49915 14 5.49897C14 5.49862 14 5.49824 14 5.49785C14 5.49707 14 5.49622 14 5.49531C14 5.49348 13.9999 5.4914 13.9999 5.48907C13.9998 5.4844 13.9997 5.47873 13.9995 5.47211C13.999 5.45889 13.9982 5.44181 13.9968 5.42141C13.9939 5.38077 13.9883 5.32598 13.9776 5.26155C13.9565 5.13505 13.9134 4.95875 13.8222 4.77639C13.7301 4.59208 13.584 4.39255 13.3555 4.24022C13.1239 4.08581 12.8375 4 12.5 4V4.5V5C12.6625 5 12.7511 5.03919 12.8008 5.07228C12.8535 5.10745 12.8949 5.15792 12.9278 5.22361C12.9616 5.29125 12.981 5.36495 12.9912 5.42595C12.9961 5.45527 12.9983 5.4786 12.9993 5.49265C12.9998 5.4996 13 5.504 13 5.50543C13.0001 5.50613 13 5.50607 13 5.50519C13 5.50475 13 5.50411 13 5.50324C13 5.50281 13 5.50233 13 5.50179C13 5.50152 13 5.50123 13 5.50093C13 5.50079 13 5.50055 13 5.50048C13 5.50024 13 5.5 13.5 5.5ZM12.5 4.5V4C12.1625 4 11.8761 4.08581 11.6445 4.24022C11.416 4.39255 11.2699 4.59208 11.1778 4.77639C11.0866 4.95875 11.0435 5.13505 11.0224 5.26155C11.0117 5.32598 11.0061 5.38077 11.0032 5.42141C11.0018 5.44181 11.001 5.45889 11.0005 5.47211C11.0003 5.47873 11.0002 5.4844 11.0001 5.48907C11.0001 5.4914 11 5.49348 11 5.49531C11 5.49622 11 5.49707 11 5.49785C11 5.49824 11 5.49862 11 5.49897C11 5.49915 11 5.49941 11 5.4995C11 5.49975 11 5.5 11.5 5.5C12 5.5 12 5.50024 12 5.50048C12 5.50055 12 5.50079 12 5.50093C12 5.50123 12 5.50152 12 5.50179C12 5.50233 12 5.50281 12 5.50324C12 5.50411 12 5.50475 12 5.50519C12 5.50607 11.9999 5.50613 12 5.50543C12 5.504 12.0002 5.4996 12.0007 5.49265C12.0017 5.4786 12.0039 5.45527 12.0088 5.42595C12.019 5.36495 12.0384 5.29125 12.0722 5.22361C12.1051 5.15792 12.1465 5.10745 12.1992 5.07228C12.2489 5.03919 12.3375 5 12.5 5V4.5ZM11.5 8.5H12V8H11.5H11V8.5H11.5ZM11.5 8.5V9H14V8.5V8H11.5V8.5Z" fill="white"/>
<path d="M8.5 11.5L10 10V14.5M11.5 11C11.5 11 11.5 10 12.5 10C13.5 10 13.5 11 13.5 11C13.5 11.8 12.8333 12 12.5 12M11.5 13C11.5 13 11.5 14 12.5 14C13.5 14 13.5 13 13.5 13C13.5 12.2 12.8333 12 12.5 12M12.5 12H12" stroke="white" stroke-linejoin="bevel"/>
</svg>
