<svg width="16" height="16" viewBox="0 0 16 16" fill="none" xmlns="http://www.w3.org/2000/svg">
<rect x="1" y="1" width="14" height="14" rx="2.5" fill="#2549FF"/>
<path d="M3.5 12.5H3C3 12.7761 3.22386 13 3.5 13V12.5ZM7.5 12.5V12H3.5V12.5V13H7.5V12.5ZM3.5 12.5H4V7.5H3.5H3V12.5H3.5ZM3.5 7.5H4V2.5H3.5H3V7.5H3.5ZM7.5 7.5V7H3.5V7.5V8H7.5V7.5Z" fill="white"/>
<circle cx="3.5" cy="3.5" r="1.5" fill="white"/>
<circle cx="6.5" cy="7.5" r="1.5" fill="white"/>
<circle cx="6.5" cy="12.5" r="1.5" fill="white"/>
<path d="M10.5 4.35352V9H9.5V5.56055L8.85352 6.20703L8.14648 5.5L9.64648 4L10.5 4.35352Z" fill="white"/>
<path d="M14 6C14 6.2192 13.8963 6.39517 13.8203 6.50098C13.7369 6.61713 13.6301 6.72524 13.5254 6.82129C13.3159 7.01334 13.0435 7.21759 12.7998 7.40039C12.5438 7.59241 12.3158 7.76345 12.1504 7.91504C12.1159 7.9467 12.0872 7.97537 12.0635 8H14V9H11V8C11 7.7808 11.1037 7.60483 11.1797 7.49902C11.2631 7.38287 11.3699 7.27476 11.4746 7.17871C11.6841 6.98666 11.9565 6.78241 12.2002 6.59961C12.4562 6.40759 12.6842 6.23655 12.8496 6.08496C12.9255 6.01543 12.9726 5.96178 13 5.92578V5.50586L12.999 5.49219C12.998 5.47809 12.996 5.45476 12.9912 5.42578C12.981 5.36481 12.9615 5.29122 12.9277 5.22363C12.8949 5.15795 12.8535 5.10744 12.8008 5.07227C12.7512 5.03918 12.6625 5 12.5 5C12.3375 5 12.2488 5.03918 12.1992 5.07227C12.1465 5.10744 12.1051 5.15795 12.0723 5.22363C12.0385 5.29122 12.019 5.36481 12.0088 5.42578C12.004 5.45476 12.002 5.47809 12.001 5.49219L12 5.50586V5.5H11.5L11 5.49902V5.48926C11.0001 5.48459 11.0008 5.4783 11.001 5.47168C11.0014 5.45863 11.0015 5.44183 11.0029 5.42188C11.0058 5.38127 11.0117 5.32608 11.0225 5.26172C11.0435 5.13522 11.0866 4.95872 11.1777 4.77637C11.2699 4.59205 11.416 4.39256 11.6445 4.24023C11.8762 4.08582 12.1625 4 12.5 4C12.8375 4 13.1238 4.08582 13.3555 4.24023C13.584 4.39256 13.7301 4.59205 13.8223 4.77637C13.9134 4.95872 13.9565 5.13522 13.9775 5.26172C13.9883 5.32608 13.9942 5.38127 13.9971 5.42188C13.9985 5.44183 13.9986 5.45863 13.999 5.47168C13.9992 5.4783 13.9999 5.48459 14 5.48926V5.49902V6Z" fill="white"/>
<path d="M10.5 9.85352L10.5 14.5H9.5L9.5 11.0605L8.85352 11.707L8.14648 11L9.64648 9.5L10.5 9.85352Z" fill="white"/>
<path d="M12.5 9.50001C12.8375 9.50001 13.1238 9.58583 13.3555 9.74024C13.584 9.89257 13.7301 10.0921 13.8223 10.2764C13.9134 10.4587 13.9565 10.6352 13.9775 10.7617C13.9883 10.8261 13.9942 10.8813 13.9971 10.9219C13.9985 10.9418 13.9986 10.9586 13.999 10.9717C13.9992 10.9783 13.9999 10.9846 14 10.9893V10.999C14 11.4249 13.8589 11.7582 13.6445 12C13.8589 12.2418 14 12.5741 14 13V13.0108C13.9999 13.0154 13.9992 13.0217 13.999 13.0283C13.9986 13.0414 13.9985 13.0582 13.9971 13.0781C13.9942 13.1187 13.9883 13.1739 13.9775 13.2383C13.9565 13.3648 13.9134 13.5413 13.8223 13.7236C13.7301 13.908 13.584 14.1074 13.3555 14.2598C13.1238 14.4142 12.8375 14.5 12.5 14.5C12.1625 14.5 11.8762 14.4142 11.6445 14.2598C11.416 14.1074 11.2699 13.908 11.1777 13.7236C11.0866 13.5413 11.0435 13.3648 11.0225 13.2383C11.0117 13.1739 11.0058 13.1187 11.0029 13.0781C11.0015 13.0582 11.0014 13.0414 11.001 13.0283C11.0008 13.0217 11.0001 13.0154 11 13.0108V13.001C11 13.001 11 13 11.5 13H12V12.9971L12.001 13.0078C12.002 13.0219 12.004 13.0452 12.0088 13.0742C12.019 13.1352 12.0385 13.2088 12.0723 13.2764C12.1051 13.3421 12.1465 13.3926 12.1992 13.4277C12.2488 13.4608 12.3375 13.5 12.5 13.5C12.6625 13.5 12.7512 13.4608 12.8008 13.4277C12.8535 13.3926 12.8949 13.3421 12.9277 13.2764C12.9615 13.2088 12.981 13.1352 12.9912 13.0742C12.996 13.0452 12.998 13.0219 12.999 13.0078C12.9992 13.0049 13 13 13 13C13 12.763 12.9126 12.6628 12.833 12.6055C12.7279 12.5298 12.5866 12.5 12.5 12.5H12V11.5H12.5C12.5866 11.5 12.7279 11.4702 12.833 11.3945C12.9119 11.3377 12.9986 11.2387 13 11.0059L12.999 10.9922C12.998 10.9781 12.996 10.9548 12.9912 10.9258C12.981 10.8648 12.9615 10.7912 12.9277 10.7236C12.8949 10.658 12.8535 10.6074 12.8008 10.5723C12.7512 10.5392 12.6625 10.5 12.5 10.5C12.3375 10.5 12.2488 10.5392 12.1992 10.5723C12.1465 10.6074 12.1051 10.658 12.0723 10.7236C12.0385 10.7912 12.019 10.8648 12.0088 10.9258C12.004 10.9548 12.002 10.9781 12.001 10.9922L12 11.0059V11H11.5L11 10.999V10.9893C11.0001 10.9846 11.0008 10.9783 11.001 10.9717C11.0014 10.9586 11.0015 10.9418 11.0029 10.9219C11.0058 10.8813 11.0117 10.8261 11.0225 10.7617C11.0435 10.6352 11.0866 10.4587 11.1777 10.2764C11.2699 10.0921 11.416 9.89257 11.6445 9.74024C11.8762 9.58583 12.1625 9.50001 12.5 9.50001Z" fill="white"/>
</svg>
